 http://www.shotpix.com/images/40472183086086831604.png
Code:
General
Format                           : Matroska
File size                        : 698 MiB
Duration                         : 2h 22mn
Overall bit rate                 : 686 Kbps
Writing application              : mkvmerge v5.6.0 ('Kenya Kane')
Writing library                  : libebml v1.2.3 + libmatroska v1.3.0

Video
ID                               : 1
Format                           : AVC
Format/Info                      : Advanced Video Codec
Format profile                   : High@L2.1
Format settings, CABAC           : Yes
Format settings, ReFrames        : 4 frames
Muxing mode                      : Container profile=Unknown@2.1
Codec ID                         : V_MPEG4/ISO/AVC
Duration                         : 2h 22mn
Bit rate                         : 636 Kbps
Width                            : 624 pixels
Height                           : 272 pixels
Display aspect ratio             : 2.25:1
Frame rate                       : 23.976 fps
Color space                      : YUV
Chroma subsampling               : 4:2:0
Bit depth                        : 8 bits
Scan type                        : Progressive
Bits/(Pixel*Frame)               : 0.156
Stream size                      : 635 MiB (91%)
Writing library                  : x264 core 125 r2200 999b753

Audio
ID                               : 2
Format                           : MPEG Audio
Format version                   : Version 2
Format profile                   : Layer 3
Mode                             : Joint stereo
Mode extension                   : MS Stereo
Codec ID                         : A_MPEG/L3
Codec ID/Hint                    : MP3
Duration                         : 2h 22mn
Bit rate mode                    : Constant
Bit rate                         : 48.0 Kbps
Channel(s)                       : 2 channels
Sampling rate                    : 22.05 KHz
Stream size                      : 48.8 MiB (7%)
Writing library                  : LAME3.99.5UUUUUULAME

Text
ID                               : 3
Format                           : UTF-8
Codec ID                         : S_TEXT/UTF8
Codec ID/Info                    : UTF-8 Plain Text

 
http://www.shotpix.com/images/41187176765547862281.png 
http://www.shotpix.com/images/36429414661890182763.png 
http://www.shotpix.com/images/52498468945450936568.png 
http://www.shotpix.com/images/31709805218584312239.png 
http://www.shotpix.com/images/47750220099846338243.png